<?xml version="1.0" encoding="UTF-8" standalone="no"?>
<svg
   version="1.1"
   id="Layer_1"
   x="0px"
   y="0px"
   width="100%"
   viewBox="0 0 700 700"
   enable-background="new 0 0 700 700"
   xml:space="preserve"
   sodipodi:docname="env-validation-logo.svg"
   inkscape:version="1.3 (0e150ed6c4, 2023-07-21)"
   xmlns:inkscape="http://www.inkscape.org/namespaces/inkscape"
   xmlns:sodipodi="http://sodipodi.sourceforge.net/DTD/sodipodi-0.dtd"
   xmlns="http://www.w3.org/2000/svg"
   xmlns:svg="http://www.w3.org/2000/svg"><defs
   id="defs26" /><sodipodi:namedview
   id="namedview26"
   pagecolor="#ffffff"
   bordercolor="#000000"
   borderopacity="0.25"
   inkscape:showpageshadow="2"
   inkscape:pageopacity="0.0"
   inkscape:pagecheckerboard="0"
   inkscape:deskcolor="#d1d1d1"
   inkscape:zoom="2.8284271"
   inkscape:cx="364.15999"
   inkscape:cy="216.905"
   inkscape:window-width="3440"
   inkscape:window-height="1351"
   inkscape:window-x="-9"
   inkscape:window-y="-9"
   inkscape:window-maximized="1"
   inkscape:current-layer="Layer_1" />&#10;&#10;&#10;<path
   fill="#000000"
   opacity="1"
   stroke="none"
   d="m 641.67657,196.99112 22.95148,57.22317 c 3.36664,11.75388 6.91351,23.46466 9.21985,35.41486 2.34045,12.12698 3.90875,24.45169 4.95892,36.76288 0.77631,9.09961 0.0958,18.31747 0.20935,27.4808 0.28925,23.33765 -2.78063,46.22528 -7.83349,69.00748 -5.00415,22.56238 -12.60498,44.09338 -22.12042,65.08136 -11.0755,24.42889 -25.07001,47.02838 -42.23713,67.56598 -9.60723,11.49347 -19.54309,22.82495 -30.31799,33.20471 -18.19873,17.53156 -38.49774,32.46918 -60.33746,45.2793 -19.89789,11.67102 -40.86042,20.92724 -62.7385,28.14361 -18.4187,6.07526 -37.27279,10.05738 -56.46722,13.03711 -22.40537,3.47821 -44.89807,3.54511 -67.29144,2.47504 -16.95185,-0.81006 -33.83176,-4.23773 -50.61213,-7.23676 -20.1585,-3.60266 -39.37629,-10.64617 -58.15643,-18.57708 -21.87328,-9.23719 -42.70015,-20.72773 -61.4921,-35.24475 -15.1654,-11.7154 -29.82559,-24.25367 -43.56634,-37.60389 C 96.50074,560.2099 80.706161,538.43707 67.002068,515.17975 55.292103,495.30685 46.073174,474.32581 38.854698,452.44879 32.777225,434.02988 28.792986,415.17764 25.809828,395.98492 c -3.482342,-22.40429 -3.548006,-44.89749 -2.477955,-67.29116 0.810064,-16.95273 4.228044,-33.83439 7.22658,-50.61524 3.602108,-20.15869 10.644519,-39.37866 18.589893,-58.15187 9.316875,-22.01376 21.04216,-42.83981 35.50946,-61.90372 9.383789,-12.36522 19.240434,-24.46762 29.840364,-35.79386 21.69388,-23.180364 46.81438,-42.293317 74.27775,-58.098882 27.00136,-15.53965 55.90114,-26.889122 86.23073,-33.869062 15.92612,-3.66519 32.34265,-5.705748 48.65555,-7.041605 16.34393,-1.338398 32.89459,-1.925349 49.24695,-0.97963 25.58102,1.479446 50.94797,5.601934 75.26059,13.958092 17.11337,5.881817 34.11514,12.440861 50.40292,20.283832 20.84885,10.03925 40.38925,22.55402 58.00925,37.70158 11.36359,9.768965 22.80585,19.563265 33.17895,30.341305 17.52521,18.20938 32.9343,39.14805 45.57017,61.09882 2.24475,3.89955 3.89883,7.22852 6.34554,11.3676"
   id="path5"
   sodipodi:nodetypes="ccssssssssssssssssssssssssssssssssc"
   inkscape:label="circle"
   style="display:inline" /><path
   fill="#00ff21"
   opacity="1"
   stroke="none"
   d="m 684.30926,247.13428 c -6.45587,2.31515 -12.54278,4.51106 -19.33758,6.92447 -20.71027,8.09927 -40.62958,16.20089 -60.73572,23.80874 -26.83032,10.1521 -52.39233,23.03864 -77.27521,37.06113 -20.62594,11.62347 -40.22201,25.10925 -60.0289,38.14294 -26.98074,17.75428 -52.16479,37.90586 -76.49078,59.10108 -14.31204,12.47006 -28.41248,25.21222 -42.09476,38.3659 -9.6531,9.28019 -18.71548,19.21894 -27.55661,29.2894 -13.50738,15.38553 -26.85327,30.92865 -39.79925,46.78729 -17.14929,21.00751 -33.80969,42.40094 -48.07933,65.55054 -4.64289,7.53223 -9.86853,14.70514 -15.00437,22.30396 C 173.26288,544.16705 128.99782,474.46094 84.255508,404.0033 c 24.935062,0 48.729542,-0.0397 72.522902,0.10385 1.35271,0.008 3.18344,1.19439 3.96761,2.37823 6.56518,9.91132 12.92221,19.9603 19.37117,29.94892 10.41372,16.12966 20.84971,32.24496 30.80052,47.63067 16.27414,-18.10107 32.35988,-36.39557 48.92586,-54.24435 8.00207,-8.62168 16.72839,-16.60187 25.44308,-24.52457 15.00382,-13.64035 29.93836,-27.38773 45.49497,-40.38013 14.43023,-12.05169 29.43109,-23.45135 44.54388,-34.64791 28.74564,-21.29676 59.28195,-39.8617 90.57184,-57.1048 19.42822,-10.70642 39.19369,-20.9417 59.42242,-30.01883 24.82233,-11.13846 50.2074,-21.04558 75.50415,-31.09488 13.55957,-5.38663 27.44428,-9.9548 41.18225,-14.89232 6.25586,-1.8307 12.51172,-3.66141 18.96436,-5.82457 1.79883,2.62012 3.68189,5.45688 4.95471,8.54518 5.76667,13.99123 11.36951,28.05008 17.00604,42.09471 0.66181,1.64896 1.16834,3.36017 1.37799,5.16178 z"
   id="path3"
   inkscape:label="checkmark"
   style="display:inline" />&#10;&#10;&#10;&#10;&#10;&#10;<path
   fill="#0b6a00"
   opacity="1"
   stroke="none"
   d="m 317,275.04804 c 0,-2.77234 0,-5.05936 0,-7.69446 11.36868,0 22.24579,0 33.72186,0 -7.57721,15.9443 -18.40817,29.17083 -31.75805,41.38327 C 318.3092,297.66904 317.6546,286.6012 317,275.04804 Z"
   id="path18"
   inkscape:label="land9"
   style="display:inline" /><path
   fill="#0b6a00"
   opacity="1"
   stroke="none"
   d="m 294.00037,278.81256 c 1.58822,15.89719 3.1766,31.31955 4.76107,46.74234 0.0506,0.49243 0.27753,1.27377 0.0574,1.44141 -3.99344,3.04126 -7.68265,6.87222 -12.18167,8.74963 -4.50733,1.88089 -7.70456,-1.75952 -9.60508,-5.79623 -1.12231,-2.38385 -1.68948,-5.03296 -2.84799,-7.39524 -6.57846,-13.41366 -18.15182,-19.16558 -32.34506,-20.52401 -17.26291,-1.65213 -31.35214,5.05877 -43.36172,16.97177 -0.68757,0.682 -1.4903,1.24786 -2.9941,2.49228 -4.28125,-18.07498 -4.90475,-35.75153 -4.34708,-54.02173 34.15336,0 68.16954,0 102.86382,0 0,3.64444 0,7.25476 3.7e-4,11.33978 z"
   id="path9"
   inkscape:label="land8"
   style="display:inline" /><path
   fill="#0b6a00"
   opacity="1"
   stroke="none"
   d="m 127.42441,306.26828 c -6.16815,-0.51834 -11.94132,-0.91504 -17.71736,-1.26425 -17.204342,-1.04013 -31.323162,10.66598 -33.712177,28.3352 -0.102158,0.75547 -0.648837,1.50446 -1.918208,2.3191 -0.02987,-1.44347 -0.08578,-2.93885 -0.02009,-4.40799 0.905696,-20.2529 4.2583,-40.31409 9.838043,-59.91971 0.775299,-2.72425 1.443451,-4.39893 4.748276,-4.38559 25.806221,0.10428 51.613041,0.0586 77.419651,0.0773 0.79293,5.8e-4 1.58573,0.19827 1.86575,0.23566 1.51806,22.90835 3.01098,45.43728 4.50696,68.01199 -8.57299,2.97555 -12.6776,1.61255 -16.92397,-6.32837 -6.11,-11.42603 -15.33937,-18.85843 -28.08688,-22.67334 z"
   id="path13"
   inkscape:label="land7"
   style="display:inline"
   sodipodi:nodetypes="csscsscsccsc" /><path
   fill="#0b6a00"
   opacity="1"
   stroke="none"
   d="m 340.5705,178.6709 c -8.27549,1.00914 -16.12937,1.85188 -23.97889,2.69417 -1.22387,-6.51172 -0.3009,-7.65993 5.1543,-7.38153 9.08545,0.46365 18.18164,0.73796 27.27603,0.99552 4.30573,0.12194 8.61774,0.0209 13.00992,0.86753 -7.01328,0.88595 -14.02655,1.77192 -21.46136,2.82431 z"
   id="path25"
   inkscape:label="land6"
   style="display:inline" /><path
   fill="#0b6a00"
   opacity="1"
   stroke="none"
   d="m 282.95111,174 c 3.117,0 5.74143,0 8.70398,0 0,3.40652 0,6.3107 0,8.76114 -5.56799,2.08626 -11.10379,3.71866 -16.23779,6.18687 -7.85019,3.77408 -11.84149,10.08596 -11.4896,19.15082 0.33109,8.52795 4.5112,14.37993 11.73298,18.10513 5.09436,2.62783 10.54531,4.56429 16.1409,6.93833 0,3.41795 0,7.20471 0,11.42489 -33.12778,0 -66.12266,0 -99.90139,0 0.40396,-5.49224 0.33402,-10.93805 1.28089,-16.20089 2.70996,-15.06255 5.82249,-30.05284 8.80748,-45.06545 0.32112,-1.6151 0.9224,-3.17378 1.25726,-4.78697 0.72218,-3.47928 2.64393,-4.62863 6.30354,-4.60277 24.30206,0.17175 48.60591,0.0889 73.40175,0.0889 z"
   id="path7"
   inkscape:label="land5"
   style="display:inline" />&#10;<path
   fill="#0b6a00"
   opacity="1"
   stroke="none"
   d="m 110.32321,206.3817 c 7.31199,-9.77638 14.25579,-19.38039 21.68155,-28.59604 1.59682,-1.98172 4.90894,-3.55319 7.47484,-3.61975 13.61041,-0.35303 27.23485,-0.16588 40.44252,-0.16588 -3.84718,23.64401 -7.63828,46.94334 -11.50324,70.69664 -24.56652,0 -50.12017,0 -77.357753,0 6.585304,-13.12602 12.825833,-25.56482 19.262083,-38.31497 z"
   id="path10"
   inkscape:label="land4"
   style="display:inline" />&#10;<path
   fill="#0b6a00"
   opacity="1"
   stroke="none"
   d="m 326.06778,80.38797 c 1.04351,-4.611255 1.987,-8.98534 3.4451,-13.527611 3.41769,1.079254 6.70804,1.923348 9.85281,3.142868 21.17182,8.210282 36.80194,21.98378 43.77832,44.229863 3.55335,11.33097 3.7591,22.7426 -0.20105,34.01659 -0.52591,1.49715 -2.42785,3.56934 -3.71228,3.58348 -20.46631,0.22549 -40.93585,0.15883 -62.22876,0.15883 1.45712,-24.24264 3.6193,-47.89806 9.06586,-71.60402 z"
   id="path11"
   sodipodi:nodetypes="ccsssccc"
   inkscape:label="land3"
   style="display:inline" /><path
   fill="#0b6a00"
   opacity="1"
   stroke="none"
   d="m 279.05469,75.676853 c 9.53281,-2.651115 15.76187,-4.824901 26.17642,-7.753139 -0.54984,3.563286 -0.88525,5.565429 -1.16483,7.575325 -2.70184,19.425102 -5.43927,38.845451 -8.05401,58.282291 -0.5719,4.25106 -0.5932,8.57368 -1.06436,12.84167 -0.30564,2.76874 -0.49222,5.47316 -4.71418,5.4487 -25.49188,-0.14774 -50.98501,-0.073 -76.47772,-0.0931 -0.76895,-6.1e-4 -1.53773,-0.22631 -3.49002,-0.5329 5.32388,-10.56156 9.82744,-20.87399 15.54628,-30.46154 7.60782,-12.41662 14.11759,-27.678929 27.62184,-34.886097 7.5789,-3.730126 14.85036,-6.257516 23.36668,-9.714083 z"
   id="path8"
   sodipodi:nodetypes="cccsssscsscc"
   inkscape:label="land2"
   style="display:inline" />&#10;<path
   fill="#0b6a00"
   opacity="1"
   stroke="none"
   d="m 205.14234,110.76528 c -4.11073,8.85458 -8.36469,17.96052 -12.39464,26.85172 -1.70401,3.75949 -2.93244,7.74344 -4.77427,11.42675 -0.64499,1.28985 -2.46112,2.79258 -3.77423,2.82292 -10.09898,0.23341 -20.20576,0.12837 -30.97125,-0.91391 4.43127,-5.3667 13.73062,-14.84055 19.21542,-18.91734 12.3051,-9.14623 17.74137,-14.40393 32.08942,-21.11859 0.33015,-0.16498 0.60955,-0.15155 0.60955,-0.15155 z"
   id="path19"
   sodipodi:nodetypes="cssccscc"
   inkscape:label="land1"
   style="display:inline" /><path
   fill="#004a7f"
   opacity="1"
   stroke="none"
   d="m 523.74622,550.75427 c 13.53247,-10.43731 23.46936,-23.56213 32.99102,-37.10278 6.95838,-9.89548 14.55072,-19.22006 25.35999,-25.35547 5.32837,-3.02438 10.78375,-3.08987 15.1756,0.33405 5.03106,3.9223 5.06036,10.89389 -0.0601,14.73663 -3.28961,2.46878 -6.74182,4.72189 -10.13495,7.0516 -9.8374,6.75431 -15.27136,17.20951 -21.97089,26.52695 -14.35662,19.96674 -31.49066,36.44586 -55.04687,44.94537 -9.63297,3.47571 -19.54721,6.20173 -29.40582,9.01532 -15.02018,4.28687 -28.07319,11.4245 -37.36481,24.44849 -3.62894,5.08667 -9.36887,6.12573 -13.67682,2.71881 -5.3346,-4.21881 -6.20703,-11.29639 -2.03943,-16.15344 15.03696,-17.52466 33.1539,-29.77759 56.32016,-33.98907 14.40271,-2.61835 28.04291,-7.4372 39.85288,-17.17646 z"
   id="path12"
   inkscape:label="water4"
   style="display:inline" /><path
   fill="#004a7f"
   opacity="1"
   stroke="none"
   d="m 429.24298,543.22711 c -10.44253,8.09625 -20.65497,15.89514 -30.75735,23.83417 -4.40958,3.46527 -8.42966,7.43823 -12.92472,10.7796 -4.88006,3.62763 -10.34625,2.95972 -13.61654,-1.5014 -3.87162,-5.28144 -4.08966,-10.51532 1.35635,-14.9112 15.7587,-12.72003 31.29758,-25.91778 48.2417,-36.89148 11.29346,-7.31414 24.76764,-11.33075 37.4082,-16.4732 10.18665,-4.1442 20.9577,-6.71051 29.38437,-14.70264 8.41065,-7.97693 11.19669,-17.99121 12.66037,-28.7861 2.8891,-21.30817 3.00519,-43.05142 10.83768,-63.56525 4.85177,-12.70715 10.48428,-24.9107 18.60971,-35.88684 3.21612,-4.34442 7.52154,-6.12857 12.62518,-5.00473 3.88666,0.85587 6.97016,3.54212 7.19672,7.72717 0.14544,2.68705 -0.3006,6.17542 -1.92389,8.06665 -12.31403,14.34714 -19.06622,31.20218 -22.24182,49.4694 -2.33563,13.43527 -3.44068,27.08413 -5.1037,40.63665 -1.99286,16.24048 -6.74506,31.50263 -18.89862,43.0278 -7.56552,7.17438 -17.15076,11.56525 -27.05649,15.09137 -12.24487,4.35883 -24.39969,8.98169 -36.49899,13.73102 -3.18659,1.25073 -6.02506,3.38825 -9.29816,5.35901 z"
   id="path6"
   inkscape:label="water2"
   style="display:inline" />&#10;&#10;<path
   fill="#004a7f"
   opacity="1"
   stroke="none"
   d="m 592.67822,339.70563 c 5.75135,-7.45175 10.96253,-14.89603 17.0036,-21.59159 3.21289,-3.561 7.99768,-4.34491 12.81098,-1.9349 4.09363,2.04962 5.79577,5.51397 5.35199,9.68417 -0.23059,2.16663 -1.56757,4.73758 -3.23316,6.14655 -12.92785,10.93582 -19.17315,25.26236 -21.59607,41.56558 -1.76184,11.8547 -2.73278,23.85687 -5.09808,35.58319 -2.1698,10.75726 -7.30865,20.32236 -15.50189,28.02048 -2.27301,2.13568 -4.01276,4.8291 -6.20532,7.06225 -4.73157,4.81906 -10.99884,5.39643 -14.92121,1.54355 -4.62744,-4.5455 -4.75628,-10.78177 0.35822,-15.82696 9.71216,-9.58063 16.04034,-20.83493 17.98358,-34.36423 1.00543,-7.00015 1.60297,-14.06101 2.29938,-21.10288 1.20678,-12.20282 5.57538,-23.42483 10.74798,-34.78521 z"
   id="path14"
   inkscape:label="water3"
   style="display:inline" />&#10;<path
   fill="#004a7f"
   opacity="1"
   stroke="none"
   d="m 427.74246,474.75647 c -8.55627,6.48828 -16.72064,12.91501 -25.19436,18.90408 -9.12177,6.44702 -16.81171,1.31 -18.21244,-5.05471 -1.16473,-5.29239 1.6941,-8.60212 5.63343,-11.65006 13.42355,-10.38614 27.3894,-20.21738 39.80416,-31.7121 8.85849,-8.20199 15.61045,-18.69385 23.19492,-28.24927 2.73755,-3.44888 5.22372,-6.53521 10.46909,-6.10025 7.34777,0.60932 12.18148,7.77625 8.36746,14.20231 -4.01758,6.76898 -8.53369,13.42712 -13.84381,19.20355 -9.5904,10.43255 -19.93381,20.17282 -30.21845,30.45645 z"
   id="path15"
   inkscape:label="water1"
   style="display:inline" />&#10;<path
   fill="#efc60e"
   opacity="1"
   stroke="none"
   d="m 465.95248,240.52179 c -8.95425,0.29144 -17.59835,0.29144 -26.95248,0.29144 0,7.25501 0.0144,14.17203 -0.005,21.08896 -0.013,4.61615 -3.06729,7.97672 -7.30014,8.09546 -4.20837,0.1181 -7.59073,-3.20554 -7.66577,-7.84424 -0.11026,-6.81496 -0.0284,-13.63301 -0.0284,-21.15341 -7.57639,0 -14.9935,0.008 -22.41061,-0.003 -6.00818,-0.009 -9.65391,-3.09021 -9.58271,-8.07147 0.0593,-4.1451 3.88913,-6.91637 9.60324,-6.92375 7.29212,-0.009 14.5842,-0.002 22.38953,-0.002 0,-7.12755 -0.0125,-13.90122 0.004,-20.67481 0.0137,-5.66192 2.75394,-9.00724 7.41077,-9.10173 4.52585,-0.0918 7.56088,3.43747 7.57971,8.88584 0.0235,6.79275 0.006,13.58565 0.006,20.8907 8.12967,0 15.91132,0.24008 23.66846,-0.0919 4.50247,-0.19271 6.89596,2.11776 8.07132,5.72352 1.31106,4.02204 -0.43961,7.05383 -4.7873,8.89017 z"
   id="path16"
   inkscape:label="gcp2"
   style="display:inline" />&#10;<path
   fill="#efc60e"
   opacity="1"
   stroke="none"
   d="m 489,193.66608 c 0,-6.9547 0,-13.44593 0,-20.66608 -7.05048,0 -13.97009,0.0214 -20.88937,-0.0157 -1.64081,-0.009 -3.42261,0.15848 -4.89261,-0.40243 -3.6059,-1.37593 -6.50864,-4.35683 -5.78598,-8.03513 0.71994,-3.6644 3.80362,-6.51278 8.22705,-6.53511 7.62439,-0.0385 15.24914,-0.0107 23.34094,-0.0107 0,-7.6845 -0.0221,-14.96798 0.008,-22.25126 0.0179,-4.2601 3.09641,-7.54899 7.15299,-7.74659 4.21335,-0.20521 7.72507,3.10267 7.80423,7.70796 0.12524,7.28471 0.0333,14.5732 0.0333,22.28894 7.56015,0 14.68165,-0.0134 21.80298,0.004 5.13013,0.0128 10.01441,3.67521 10.03003,7.47814 0.0156,3.80878 -4.85846,7.49834 -9.98608,7.51246 C 518.72076,173.01468 511.59543,173 504,173 c 0,7.17918 -0.19247,13.96956 0.0555,20.7438 0.23666,6.46697 -3.15372,8.61391 -7.88809,9.17243 -3.9957,0.47136 -6.86023,-3.31708 -7.16736,-9.25015 z"
   id="path17"
   inkscape:label="gcp1"
   style="display:inline" /><path
   fill="#efc60e"
   opacity="1"
   stroke="none"
   d="m 229.09642,365.8905 c 3.99005,-1.49423 7.20857,0.0144 9.50171,2.56647 2.86882,3.19269 3.51552,7.6402 0.93651,11.25076 -2.13411,2.9877 -6.63846,4.68862 -10.76701,3.24108 -8.43524,-2.9572 -8.89322,-13.60476 0.32879,-17.05831 z"
   id="path22"
   inkscape:label="point5"
   sodipodi:nodetypes="sssss"
   style="display:inline" />&#10;&#10;&#10;<path
   fill="#efc60e"
   opacity="1"
   stroke="none"
   d="m 353.62463,214.00183 c 6.80069,2.13541 8.77176,5.23352 7.41257,10.98601 -1.28851,5.45311 -4.93216,7.88449 -10.48721,6.99788 -4.69153,-0.74878 -8.0618,-5.59311 -7.54712,-10.84803 0.48248,-4.92637 3.63892,-7.13551 10.62176,-7.13586 z"
   id="path20"
   inkscape:label="point4"
   style="display:inline" />&#10;<path
   fill="#efc60e"
   opacity="1"
   stroke="none"
   d="m 573.97437,167.47113 c -6.22455,-3.86852 -7.56501,-7.86195 -4.63965,-13.23502 2.13092,-3.91386 7.0747,-5.33854 11.77453,-3.16507 5.35968,2.47863 7.31262,6.96256 4.84687,12.26581 -2.36957,5.09648 -7.01319,4.99359 -11.98175,4.13428 z"
   id="path21"
   inkscape:label="point3"
   style="display:inline" />&#10;&#10;<path
   fill="#efc60e"
   opacity="1"
   stroke="none"
   d="m 424.69353,141.0529 c 0.17886,9.15756 -1.82994,11.83412 -8.09117,11.97101 -4.60151,0.10057 -7.52256,-2.08208 -8.52506,-6.4006 -1.21762,-5.24521 0.79318,-9.40253 4.88037,-11.08774 4.15204,-1.71195 7.92959,-0.22794 11.0647,3.51808 0.30857,0.36869 0.32158,1.17668 0.67116,1.99925 z"
   id="path23"
   sodipodi:nodetypes="cssssc"
   inkscape:label="point2"
   style="display:inline" />&#10;<path
   fill="#efc60e"
   opacity="1"
   stroke="none"
   d="m 437.00021,93.14917 c 1.09888,-5.384354 5.19992,-8.732132 9.45581,-8.135986 4.34137,0.608116 8.79398,5.749214 8.5073,9.822723 -0.31366,4.455971 -4.83661,8.371633 -9.4292,8.163173 -4.77112,-0.21657 -8.41641,-4.245723 -8.53391,-9.84991 z"
   id="path24"
   inkscape:label="point1"
   style="display:inline" />&#10;&#10;&#10;</svg>
